<?xml version="1.0" encoding="UTF-8"?><svg id="b" xmlns="http://www.w3.org/2000/svg" viewBox="0 0 100 100"><path d="M47.18,20.4l4.58,2.72c-2.05,1.57-3.92,3.54-5.09,5.86-8.18.56-15.39,6.11-18.17,13.79-3.77,10.44,1.05,22.07,11.12,26.61-.27.09-.69.16-.97.17-9.53.49-18.1-4.13-23.15-12.09-.07-.11-.03-.27-.24-.22-.03-.18-.14-.39-.17-.59-2.83-19.29,12.06-36.43,31.49-36.33.16,0,.37.08.59.08Z" fill="#5e35bc"/><path d="M74.69,53.76c.94,1.58,1.71,3.65,2.12,5.43.02.09.07.18.08.25-.17.05-.16.22-.2.35-2.41,8.46-7.44,15.31-15.2,19.61l-3.54,1.77c-.11,0-.23,0-.34,0-.87-.06-1.85-.28-2.7-.48-5.35-1.29-9.9-5.12-12.15-10.13,3.79,1.07,8.01.98,11.78-.15,9.47-2.83,15.87-12.12,14.96-22.01.16,0,.26.09.38.17,1.64,1.09,3.79,3.48,4.8,5.18Z" fill="#c65f81"/><path d="M15.26,57.24c.21-.05.17.12.24.22,5.05,7.96,13.63,12.58,23.15,12.09.28-.01.71-.08.97-.17,1.01.45,2.08.89,3.14,1.19,2.25,5.01,6.8,8.84,12.15,10.13.85.2,1.84.42,2.7.48-2.17.9-4.51,1.52-6.85,1.86-16.88,2.4-32.66-9.02-35.51-25.79Z" fill="#8466d2"/><path d="M54.57,21.42c13.18,3.51,22.78,15.73,23.18,29.37,0,.06,0,.11,0,.17l-3.06,2.8c-1.01-1.7-3.16-4.08-4.8-5.18-.12-.08-.22-.17-.38-.17-1.09-11.97-10.81-20.26-22.84-19.44,1.17-2.31,3.04-4.28,5.09-5.86l2.63-1.7s.12-.01.17,0Z" fill="#aa7661"/><path d="M77.74,50.79c-.39-13.64-9.99-25.86-23.18-29.37,8.48-4.44,18.99-1.65,24.38,6.14,4.35,6.27,4.53,14.65.44,21.11-.47.73-1.02,1.54-1.65,2.13Z" fill="#d1a76f"/><path d="M46.59,20.32c-19.43-.1-34.32,17.04-31.49,36.33-.69-1.02-1.23-2.23-1.68-3.37-4.22-10.96-.49-23.3,9.04-30.06,6.97-4.94,16.17-6.11,24.14-2.9Z" fill="#825db7"/><path d="M92.33,43.35c6.75-.77,8.17,8.99,1.72,10.29-7.02,1.42-8.61-9.51-1.72-10.29Z" fill="#7150c7"/><path d="M57.96,81.18l3.54-1.77c7.76-4.3,12.78-11.15,15.2-19.61.04-.14.02-.3.2-.35,2.54,11.87-6.98,22.36-18.93,21.73Z" fill="#ea8d91"/><path d="M51.24,6.93c5.9-.72,6.71,8.27.91,8.72s-6.43-8.05-.91-8.72Z" fill="#bf737f"/><path d="M14.65,74.67c3.88-.61,4.49,5.16.9,5.57-3.79.44-4.3-5.04-.9-5.57Z" fill="#d1a76f"/><path d="M83.33,55.14c3.2-.25,4.13,4.39,1.12,5.37-3.96,1.28-5.11-5.06-1.12-5.37Z" fill="#e77d81"/><path d="M6.25,48.86c3.53-.05,3.58,5.36.06,5.42s-3.63-5.36-.06-5.42Z" fill="#825db7"/><path d="M76.81,59.2c-.41-1.78-1.19-3.86-2.12-5.43l3.06-2.8c.05,2.54-.15,5.09-.71,7.57-.05.22-.08.49-.23.66Z" fill="#8466d2"/><path d="M54.4,21.42l-2.63,1.7-4.58-2.72c2.49.07,4.8.4,7.22,1.02Z" fill="#8466d2"/><path d="M45.74,30.51l-.51,1.53c-6.99,1.21-12.85,6.75-14.53,13.61-2.16,8.82,2.5,18.14,10.96,21.45.03.57.24,1.16.42,1.7-9.41-3.15-14.97-12.81-13.05-22.6,1.61-8.18,8.4-14.64,16.7-15.69Z" fill="#5e35bc"/><path d="M67.98,47.31l-1.53-.68c-1.78-9.71-11.53-16.28-21.22-14.6l.51-1.53c10.92-1.38,20.7,5.9,22.24,16.81Z" fill="#a67260"/><path d="M66.79,57.24c-3.88,9.87-14.55,14.95-24.7,11.54-.18-.54-.39-1.13-.42-1.7,9.17,3.58,19.73-.74,23.6-9.76.45.22,1.05-.1,1.53-.08Z" fill="#c65f81"/><path d="M67.98,47.31c.5,3.54.11,6.64-1.19,9.93-.48-.01-1.08.3-1.53.08,1.35-3.16,1.81-7.32,1.19-10.7l1.53.68Z" fill="#d06561"/><path d="M44.3,41.2l.59,2.89c-.89,3.66-5.94,3.35-6.68-.06s3.81-5.84,6.09-2.82ZM41.31,40.8c-3.12.35-2.84,5.32.73,4.89,2.93-.35,2.59-5.26-.73-4.89Z" fill="#5e35bc"/><path d="M58.13,45.19c-.41.01-.97-.02-1.36.08,2.07-1.71.54-5.12-2.16-4.4-2.45.65-2.35,4.12.03,4.83-.34.04-.93.29-1.27.42-2.11-1.39-2.06-4.47.09-5.81,3.1-1.93,6.73,1.72,4.66,4.87Z" fill="#a67260"/><path d="M53.63,55.04c-2.02,1.82-.05,5.12,2.52,4.18,1.1-.4,1.6-1.34,1.55-2.48l1.02.25c-.03,1.36-.9,2.64-2.19,3.12-3.52,1.33-6.33-3.05-3.67-5.67l.76.59Z" fill="#ba5380"/><path d="M43.62,54.1l-.42.76c-1.07-.84-2.82-.59-3.6.51-1.17,1.64-.04,3.9,1.99,3.9l-.17,1.02c-3.43-.17-4.49-4.82-1.5-6.47,1.31-.72,2.54-.6,3.71.27Z" fill="#5e35bc"/><path d="M41.41,60.3l.17-1.02c2.44,0,3.34-3.06,1.61-4.41l.42-.76c2.83,2.1,1.15,6.37-2.21,6.2Z" fill="#ba5380"/><path d="M58.73,56.99l-1.02-.25c-.09-2.06-2.57-3.06-4.07-1.7l-.76-.59c2.25-2.21,5.91-.54,5.86,2.55Z" fill="#d06561"/><path d="M58.13,45.19c-1.06,1.62-3.14,2-4.75.93.34-.14.93-.38,1.27-.42s.75.03,1.12-.02c.42-.06.68-.32,1-.4.39-.1.95-.07,1.36-.08Z" fill="#d06561"/><path d="M49.47,51.64l-.34-.34c1.08-.72.53-2.53-.85-2.46l.51-.42c.37.07.55.09.85.38.74.72.81,1.97.08,2.72-.1.11-.21.09-.26.12Z" fill="#d06561"/><path d="M49.13,51.3l.34.34c-1.29.98-2.86.24-2.97-1.36l.51-.34c-.16,1.22,1.09,2.05,2.12,1.36Z" fill="#ba5380"/><path d="M44.89,44.09l-.59-2.89c.78,1.04.91,1.59.59,2.89Z" fill="#a67260"/><path d="M48.8,48.42l-.51.42c-.19,0-.82.22-.93.34l-.17-.42c.61-.5.84-.49,1.61-.34Z" fill="#a67260"/><path d="M47.35,49.18s-.33.66-.34.76l-.51.34s-.07-.06-.07-.18c.03-.58.32-.99.75-1.35l.17.42Z" fill="#5e35bc"/></svg>